<svg width="64" height="64" viewBox="0 0 64 64" fill="none" xmlns="http://www.w3.org/2000/svg">
<rect width="64" height="64" rx="18" fill="#FEF3C7"/>
<path d="M25 16C25 13.7909 26.7909 12 29 12H35C37.2091 12 39 13.7909 39 16V19H25V16Z" fill="#F59E0B"/>
<path d="M21 23C21 20.7909 22.7909 19 25 19H39C41.2091 19 43 20.7909 43 23V44C43 49.5228 38.5228 54 33 54H31C25.4772 54 21 49.5228 21 44V23Z" fill="#F97316"/>
<path d="M25 23H39V44C39 47.3137 36.3137 50 33 50H31C27.6863 50 25 47.3137 25 44V23Z" fill="#FDBA74"/>
<path d="M43 26H46C49.3137 26 52 28.6863 52 32C52 35.3137 49.3137 38 46 38H43V34H45.5C46.8807 34 48 32.8807 48 31.5C48 30.1193 46.8807 29 45.5 29H43V26Z" fill="#EA580C"/>
<path d="M28 8C28.5523 8 29 8.44772 29 9V15C29 15.5523 28.5523 16 28 16C27.4477 16 27 15.5523 27 15V9C27 8.44772 27.4477 8 28 8Z" fill="#F59E0B"/>
<path d="M36 8C36.5523 8 37 8.44772 37 9V15C37 15.5523 36.5523 16 36 16C35.4477 16 35 15.5523 35 15V9C35 8.44772 35.4477 8 36 8Z" fill="#F59E0B"/>
<path d="M29 31C29 29.8954 29.8954 29 31 29H33C34.1046 29 35 29.8954 35 31V43C35 44.1046 34.1046 45 33 45H31C29.8954 45 29 44.1046 29 43V31Z" fill="#7C2D12"/>
</svg>
